<?xml version="1.0" encoding="utf-8"?>
<!-- Uploaded to: SVG Repo, www.svgrepo.com, Generator: SVG Repo Mixer Tools -->
<!DOCTYPE svg PUBLIC "-//W3C//DTD SVG 1.1//EN" "http://www.w3.org/Graphics/SVG/1.1/DTD/svg11.dtd">
<svg fill="#000000" width="800px" height="800px" viewBox="0 0 1000 1000" version="1.1" xmlns="http://www.w3.org/2000/svg" xmlns:xlink="http://www.w3.org/1999/xlink"  enable-background="new 0 0 1000 1000" xml:space="preserve">
<metadata> Svg Vector Icons : http://www.onlinewebfonts.com/icon </metadata>
<g>
<g transform="translate(0.000000,511.000000) scale(0.100000,-0.100000)">
<path d="M3329.9,4762.3c-264.1-64-538.2-288.1-658.3-538.2c-60-126.1-84-228.1-184.1-788.3l-116-644.3l-762.3-6c-740.3-6-764.3-8-874.4-52c-250.1-100-478.2-330.1-580.2-580.2l-46-114.1l-6-2879.2c-6-3177.4-12-2999.3,120.1-3229.4c132-230.1,400.2-432.2,648.3-484.2c66-14,1384.6-20,4189.8-16l4091.7,6l108.1,46c216.1,92.1,388.1,242.1,516.2,448.2c40,64,84,116,100,116c22,0,26,468.2,22,3007.3l-6,3007.3l-78,160.1c-90,182.1-262.1,364.1-424.2,452.2c-200.1,108.1-272.1,116.1-1048.4,116.1h-714.3l-114.1,646.3c-100,562.2-122.1,662.3-184.1,788.3c-120,248.1-384.2,466.2-656.3,538.2C6533.2,4800.3,3483.9,4800.3,3329.9,4762.3z M6661.3,4154.1c116-58,140.1-126.1,254.1-752.3c58-320.1,106-588.3,106-596.3c0-10-908.4-16-2020.8-16c-1110.5,0-2020.9,6-2020.9,14c0,8,46,272.1,102,586.3c112.1,624.3,140.1,706.3,258.1,764.3c64,34,186.1,36,1660.7,36S6597.2,4188.1,6661.3,4154.1z M9162.3,2153.2c148.1-72,140.1,36,140.1-1958.8v-1786.7H7671.7H6041v430.2V-732H5000.6H3960.1v-430.2v-430.2H2329.4H698.8V194.4c0,1994.9-8,1886.8,140.1,1958.8c66,34,306.1,36,4161.8,36S9096.3,2187.2,9162.3,2153.2z M5440.8-1882.5v-550.2h-440.2h-440.2v550.2v550.2h440.2h440.2V-1882.5z M3960.1-2612.8V-3033h1040.4H6041v420.2v420.2h1630.7h1630.7v-782.3c0-882.4,0-886.4-142.1-958.4c-76-40-150.1-40-4163.8-40c-3921.7,0-4091.7,2-4155.8,36c-142.1,76-142.1,80-142.1,958.4v786.3h1630.7h1630.7V-2612.8z"/>
</g>
</g>
</svg>